<mxfile host="app.diagrams.net" modified="2024-01-27T07:29:47.591Z" agent="Mozilla/5.0 (Windows NT 10.0; Win64; x64) AppleWebKit/537.36 (KHTML, like Gecko) Chrome/120.0.0.0 Safari/537.36" etag="ZxG2PdIGMBvQBBtduCfr" version="23.0.2" type="github">
  <diagram name="페이지-1" id="2qhfpRiU8e1uojAMokt1">
    <mxGraphModel dx="794" dy="484" grid="0" gridSize="10" guides="1" tooltips="1" connect="1" arrows="1" fold="1" page="0" pageScale="1" pageWidth="827" pageHeight="1169" math="0" shadow="0">
      <root>
        <mxCell id="0" />
        <mxCell id="1" parent="0" />
        <mxCell id="7Qk046dlHrK45q9BtJFp-1" value="Attribute" style="ellipse;whiteSpace=wrap;html=1;align=center;fontStyle=4;fontSize=16;" vertex="1" parent="1">
          <mxGeometry x="143" y="142" width="152" height="78" as="geometry" />
        </mxCell>
      </root>
    </mxGraphModel>
  </diagram>
</mxfile>
